{
    "accessors": {
        "accessor_24": {
            "bufferView": "bufferView_38",
            "byteOffset": 0,
            "byteStride": 0,
            "componentType": 5123,
            "count": 65532,
            "type": "SCALAR"
        },
        "accessor_26": {
            "bufferView": "bufferView_39",
            "byteOffset": 0,
            "byteStride": 12,
            "componentType": 5126,
            "count": 65532,
            "max": [
                850.106,
                933.093,
                298.639
            ],
            "min": [
                -849.894,
                -829.443,
                -286.361
            ],
            "type": "VEC3"
        },
        "accessor_28": {
            "bufferView": "bufferView_39",
            "byteOffset": 786384,
            "byteStride": 12,
            "componentType": 5126,
            "count": 65532,
            "max": [
                1,
                1,
                1
            ],
            "min": [
                -1,
                -1,
                -1
            ],
            "type": "VEC3"
        },
        "accessor_32": {
            "bufferView": "bufferView_38",
            "byteOffset": 131064,
            "byteStride": 0,
            "componentType": 5123,
            "count": 29886,
            "type": "SCALAR"
        },
        "accessor_34": {
            "bufferView": "bufferView_39",
            "byteOffset": 1572768,
            "byteStride": 12,
            "componentType": 5126,
            "count": 29886,
            "max": [
                190.74,
                1087.5,
                189.217
            ],
            "min": [
                -190.529,
                -11042.5,
                -176.938
            ],
            "type": "VEC3"
        },
        "accessor_36": {
            "bufferView": "bufferView_39",
            "byteOffset": 1931400,
            "byteStride": 12,
            "componentType": 5126,
            "count": 29886,
            "max": [
                1,
                1,
                1
            ],
            "min": [
                -1,
                -1,
                -1
            ],
            "type": "VEC3"
        }
    },
    "animations": {},
    "asset": {
        "generator": "collada2gltf@d78daf1e7950e6c22fe6bec1d07965e8a302e90d",
        "premultipliedAlpha": true,
        "profile": {
            "api": "WebGL",
            "version": "1.0.2"
        },
        "version": 1
    },
    "bufferViews": {
        "bufferView_38": {
            "buffer": "obj",
            "byteLength": 190836,
            "byteOffset": 0,
            "target": 34963
        },
        "bufferView_39": {
            "buffer": "obj",
            "byteLength": 2290032,
            "byteOffset": 190836,
            "target": 34962
        }
    },
    "buffers": {
        "obj": {
            "byteLength": 2480868,
            "type": "arraybuffer",
            "uri": "data:application/octet-stream;base64,"
        }
    },
    "materials": {
        "__glTF__defaultMaterial0": {
            "name": "__glTF__defaultMaterial0",
            "technique": "technique0",
            "values": {
                "diffuse": [
                    1,
                    1,
                    1,
                    1
                ]
            }
        }
    },
    "meshes": {
        "S1_J3_190X12-lib": {
            "name": "S1_J3_190X12Mesh",
            "primitives": [
                {
                    "attributes": {
                        "NORMAL": "accessor_28",
                        "POSITION": "accessor_26"
                    },
                    "indices": "accessor_24",
                    "material": "__glTF__defaultMaterial0",
                    "mode": 4
                }
            ]
        },
        "S1_J3_190X12-libsplit_0": {
            "name": "S1_J3_190X12Mesh1",
            "primitives": [
                {
                    "attributes": {
                        "NORMAL": "accessor_36",
                        "POSITION": "accessor_34"
                    },
                    "indices": "accessor_32",
                    "material": "__glTF__defaultMaterial0",
                    "mode": 4
                }
            ]
        }
    },
    "nodes": {
        "S1_J3_190X12": {
            "children": [],
            "matrix": [
                1,
                0,
                0,
                0,
                0,
                4.48966e-011,
                -1,
                0,
                0,
                1,
                4.48966e-011,
                0,
                -0.105922,
                -6.13933,
                -9242.5,
                1
            ],
            "meshes": [
                "S1_J3_190X12-lib",
                "S1_J3_190X12-libsplit_0"
            ],
            "name": "S1_J3_190X12"
        }
    },
    "programs": {
        "program_0": {
            "attributes": [
                "a_normal",
                "a_position"
            ],
            "fragmentShader": "obj0FS",
            "vertexShader": "obj0VS"
        }
    },
    "scene": "defaultScene",
    "scenes": {
        "defaultScene": {
            "nodes": [
                "S1_J3_190X12"
            ]
        }
    },
    "shaders": {
        "obj0FS": {
            "type": 35632,
            "uri": "data:text/plain;base64,"
        },
        "obj0VS": {
            "type": 35633,
            "uri": "data:text/plain;base64,"
        }
    },
    "skins": {},
    "techniques": {
        "technique0": {
            "attributes": {
                "a_normal": "normal",
                "a_position": "position"
            },
            "parameters": {
                "diffuse": {
                    "type": 35666
                },
                "modelViewMatrix": {
                    "semantic": "MODELVIEW",
                    "type": 35676
                },
                "normal": {
                    "semantic": "NORMAL",
                    "type": 35665
                },
                "normalMatrix": {
                    "semantic": "MODELVIEWINVERSETRANSPOSE",
                    "type": 35675
                },
                "position": {
                    "semantic": "POSITION",
                    "type": 35665
                },
                "projectionMatrix": {
                    "semantic": "PROJECTION",
                    "type": 35676
                }
            },
            "program": "program_0",
            "states": {
                "enable": [
                    2929,
                    2884
                ]
            },
            "uniforms": {
                "u_diffuse": "diffuse",
                "u_modelViewMatrix": "modelViewMatrix",
                "u_normalMatrix": "normalMatrix",
                "u_projectionMatrix": "projectionMatrix"
            }
        }
    }
}